# Tiled2Unity generated file. Do not modify by hand.
# Wavefront file for 'Boulanje-Town_mesh_0009.obj'

# Vertices (Count = 16)
v -352 -64 0
v -384 -64 0
v -384 -32 0
v -352 -32 0
v -832 -64 0
v -864 -64 0
v -864 -32 0
v -832 -32 0
v -704 -960 0
v -736 -960 0
v -736 -928 0
v -704 -928 0
v -928 -992 0
v -960 -992 0
v -960 -960 0
v -928 -960 0

# Texture cooridinates (Count = 4)
vt 0 0
vt 1 0
vt 1 1
vt 0 1

# Normal
vn 0 0 -1

# Mesh description
g Boulanje-Town_mesh_0009

# Faces
f 1/1/1 2/2/1 3/3/1 4/4/1
f 5/1/1 6/2/1 7/3/1 8/4/1
f 9/1/1 10/2/1 11/3/1 12/4/1
f 13/1/1 14/2/1 15/3/1 16/4/1

