# Tiled2Unity generated file. Do not modify by hand.
# Wavefront file for 'Boulanje-Town_mesh_0092.obj'

# Vertices (Count = 24)
v -992 -64 0
v -1086 -64 0
v -1086 30 0
v -992 30 0
v -928 -96 0
v -1022 -96 0
v -1022 -2 0
v -928 -2 0
v -960 -992 0
v -1054 -992 0
v -1054 -898 0
v -960 -898 0
v -960 -1088 0
v -1054 -1088 0
v -1054 -994 0
v -960 -994 0
v -1056 -1088 0
v -1150 -1088 0
v -1150 -994 0
v -1056 -994 0
v -1056 -1120 0
v -1150 -1120 0
v -1150 -1026 0
v -1056 -1026 0

# Texture cooridinates (Count = 4)
vt 0 0
vt 1 0
vt 1 1
vt 0 1

# Normal
vn 0 0 -1

# Mesh description
g Boulanje-Town_mesh_0092

# Faces
f 1/1/1 2/2/1 3/3/1 4/4/1
f 5/1/1 6/2/1 7/3/1 8/4/1
f 9/1/1 10/2/1 11/3/1 12/4/1
f 13/1/1 14/2/1 15/3/1 16/4/1
f 17/1/1 18/2/1 19/3/1 20/4/1
f 21/1/1 22/2/1 23/3/1 24/4/1

