# Tiled2Unity generated file. Do not modify by hand.
# Wavefront file for 'Boulanje-Town_mesh_0081.obj'

# Vertices (Count = 12)
v -320 -96 0
v -352 -96 0
v -352 -64 0
v -320 -64 0
v -928 -288 0
v -960 -288 0
v -960 -256 0
v -928 -256 0
v -320 -768 0
v -352 -768 0
v -352 -736 0
v -320 -736 0

# Texture cooridinates (Count = 4)
vt 0 0
vt 1 0
vt 1 1
vt 0 1

# Normal
vn 0 0 -1

# Mesh description
g Boulanje-Town_mesh_0081

# Faces
f 1/1/1 2/2/1 3/3/1 4/4/1
f 5/1/1 6/2/1 7/3/1 8/4/1
f 9/1/1 10/2/1 11/3/1 12/4/1

