# Tiled2Unity generated file. Do not modify by hand.
# Wavefront file for 'Boulanje-Town_mesh_0013.obj'

# Vertices (Count = 64)
v -160 -192 0
v -192 -192 0
v -192 -160 0
v -160 -160 0
v -512 -192 0
v -544 -192 0
v -544 -160 0
v -512 -160 0
v -896 -192 0
v -928 -192 0
v -928 -160 0
v -896 -160 0
v -896 -224 0
v -928 -224 0
v -928 -192 0
v -896 -192 0
v -864 -256 0
v -896 -256 0
v -896 -224 0
v -864 -224 0
v -96 -384 0
v -128 -384 0
v -128 -352 0
v -96 -352 0
v -128 -384 0
v -160 -384 0
v -160 -352 0
v -128 -352 0
v -160 -384 0
v -192 -384 0
v -192 -352 0
v -160 -352 0
v -192 -384 0
v -224 -384 0
v -224 -352 0
v -192 -352 0
v -512 -384 0
v -544 -384 0
v -544 -352 0
v -512 -352 0
v -352 -512 0
v -384 -512 0
v -384 -480 0
v -352 -480 0
v -128 -608 0
v -160 -608 0
v -160 -576 0
v -128 -576 0
v -640 -800 0
v -672 -800 0
v -672 -768 0
v -640 -768 0
v -544 -928 0
v -576 -928 0
v -576 -896 0
v -544 -896 0
v -832 -928 0
v -864 -928 0
v -864 -896 0
v -832 -896 0
v -544 -1088 0
v -576 -1088 0
v -576 -1056 0
v -544 -1056 0

# Texture cooridinates (Count = 4)
vt 0 0
vt 1 0
vt 1 1
vt 0 1

# Normal
vn 0 0 -1

# Mesh description
g Boulanje-Town_mesh_0013

# Faces
f 1/1/1 2/2/1 3/3/1 4/4/1
f 5/1/1 6/2/1 7/3/1 8/4/1
f 9/1/1 10/2/1 11/3/1 12/4/1
f 13/1/1 14/2/1 15/3/1 16/4/1
f 17/1/1 18/2/1 19/3/1 20/4/1
f 21/1/1 22/2/1 23/3/1 24/4/1
f 25/1/1 26/2/1 27/3/1 28/4/1
f 29/1/1 30/2/1 31/3/1 32/4/1
f 33/1/1 34/2/1 35/3/1 36/4/1
f 37/1/1 38/2/1 39/3/1 40/4/1
f 41/1/1 42/2/1 43/3/1 44/4/1
f 45/1/1 46/2/1 47/3/1 48/4/1
f 49/1/1 50/2/1 51/3/1 52/4/1
f 53/1/1 54/2/1 55/3/1 56/4/1
f 57/1/1 58/2/1 59/3/1 60/4/1
f 61/1/1 62/2/1 63/3/1 64/4/1

