# Tiled2Unity generated file. Do not modify by hand.
# Wavefront file for 'Boulanje-Town_mesh_0019.obj'

# Vertices (Count = 24)
v -768 -288 0
v -800 -288 0
v -800 -256 0
v -768 -256 0
v -416 -416 0
v -448 -416 0
v -448 -384 0
v -416 -384 0
v -256 -640 0
v -288 -640 0
v -288 -608 0
v -256 -608 0
v -544 -832 0
v -576 -832 0
v -576 -800 0
v -544 -800 0
v -448 -992 0
v -480 -992 0
v -480 -960 0
v -448 -960 0
v -736 -992 0
v -768 -992 0
v -768 -960 0
v -736 -960 0

# Texture cooridinates (Count = 4)
vt 0 0
vt 1 0
vt 1 1
vt 0 1

# Normal
vn 0 0 -1

# Mesh description
g Boulanje-Town_mesh_0019

# Faces
f 1/1/1 2/2/1 3/3/1 4/4/1
f 5/1/1 6/2/1 7/3/1 8/4/1
f 9/1/1 10/2/1 11/3/1 12/4/1
f 13/1/1 14/2/1 15/3/1 16/4/1
f 17/1/1 18/2/1 19/3/1 20/4/1
f 21/1/1 22/2/1 23/3/1 24/4/1

