# Tiled2Unity generated file. Do not modify by hand.
# Wavefront file for 'Boulanje-Town_mesh_0016.obj'

# Vertices (Count = 40)
v -992 -224 0
v -1024 -224 0
v -1024 -192 0
v -992 -192 0
v -352 -352 0
v -384 -352 0
v -384 -320 0
v -352 -320 0
v -448 -544 0
v -480 -544 0
v -480 -512 0
v -448 -512 0
v -960 -576 0
v -992 -576 0
v -992 -544 0
v -960 -544 0
v -160 -608 0
v -192 -608 0
v -192 -576 0
v -160 -576 0
v 0 -704 0
v -32 -704 0
v -32 -672 0
v 0 -672 0
v -256 -800 0
v -288 -800 0
v -288 -768 0
v -256 -768 0
v -288 -832 0
v -320 -832 0
v -320 -800 0
v -288 -800 0
v -864 -960 0
v -896 -960 0
v -896 -928 0
v -864 -928 0
v -736 -1120 0
v -768 -1120 0
v -768 -1088 0
v -736 -1088 0

# Texture cooridinates (Count = 4)
vt 0 0
vt 1 0
vt 1 1
vt 0 1

# Normal
vn 0 0 -1

# Mesh description
g Boulanje-Town_mesh_0016

# Faces
f 1/1/1 2/2/1 3/3/1 4/4/1
f 5/1/1 6/2/1 7/3/1 8/4/1
f 9/1/1 10/2/1 11/3/1 12/4/1
f 13/1/1 14/2/1 15/3/1 16/4/1
f 17/1/1 18/2/1 19/3/1 20/4/1
f 21/1/1 22/2/1 23/3/1 24/4/1
f 25/1/1 26/2/1 27/3/1 28/4/1
f 29/1/1 30/2/1 31/3/1 32/4/1
f 33/1/1 34/2/1 35/3/1 36/4/1
f 37/1/1 38/2/1 39/3/1 40/4/1

