# Tiled2Unity generated file. Do not modify by hand.
# Wavefront file for 'Boulanje-Town_mesh_0028.obj'

# Vertices (Count = 20)
v -64 -160 0
v -96 -160 0
v -96 -128 0
v -64 -128 0
v -416 -160 0
v -448 -160 0
v -448 -128 0
v -416 -128 0
v -736 -224 0
v -768 -224 0
v -768 -192 0
v -736 -192 0
v -32 -576 0
v -64 -576 0
v -64 -544 0
v -32 -544 0
v -512 -768 0
v -544 -768 0
v -544 -736 0
v -512 -736 0

# Texture cooridinates (Count = 4)
vt 0 0
vt 1 0
vt 1 1
vt 0 1

# Normal
vn 0 0 -1

# Mesh description
g Boulanje-Town_mesh_0028

# Faces
f 1/1/1 2/2/1 3/3/1 4/4/1
f 5/1/1 6/2/1 7/3/1 8/4/1
f 9/1/1 10/2/1 11/3/1 12/4/1
f 13/1/1 14/2/1 15/3/1 16/4/1
f 17/1/1 18/2/1 19/3/1 20/4/1

