# Tiled2Unity generated file. Do not modify by hand.
# Wavefront file for 'Boulanje-Town_mesh_0011.obj'

# Vertices (Count = 44)
v -32 -192 0
v -64 -192 0
v -64 -160 0
v -32 -160 0
v -384 -192 0
v -416 -192 0
v -416 -160 0
v -384 -160 0
v -64 -384 0
v -96 -384 0
v -96 -352 0
v -64 -352 0
v -224 -480 0
v -256 -480 0
v -256 -448 0
v -224 -448 0
v 0 -608 0
v -32 -608 0
v -32 -576 0
v 0 -576 0
v -480 -608 0
v -512 -608 0
v -512 -576 0
v -480 -576 0
v -32 -736 0
v -64 -736 0
v -64 -704 0
v -32 -704 0
v -800 -736 0
v -832 -736 0
v -832 -704 0
v -800 -704 0
v -480 -800 0
v -512 -800 0
v -512 -768 0
v -480 -768 0
v -352 -928 0
v -384 -928 0
v -384 -896 0
v -352 -896 0
v -160 -1088 0
v -192 -1088 0
v -192 -1056 0
v -160 -1056 0

# Texture cooridinates (Count = 4)
vt 0 0
vt 1 0
vt 1 1
vt 0 1

# Normal
vn 0 0 -1

# Mesh description
g Boulanje-Town_mesh_0011

# Faces
f 1/1/1 2/2/1 3/3/1 4/4/1
f 5/1/1 6/2/1 7/3/1 8/4/1
f 9/1/1 10/2/1 11/3/1 12/4/1
f 13/1/1 14/2/1 15/3/1 16/4/1
f 17/1/1 18/2/1 19/3/1 20/4/1
f 21/1/1 22/2/1 23/3/1 24/4/1
f 25/1/1 26/2/1 27/3/1 28/4/1
f 29/1/1 30/2/1 31/3/1 32/4/1
f 33/1/1 34/2/1 35/3/1 36/4/1
f 37/1/1 38/2/1 39/3/1 40/4/1
f 41/1/1 42/2/1 43/3/1 44/4/1

