# Tiled2Unity generated file. Do not modify by hand.
# Wavefront file for 'Boulanje-Town_mesh_0107.obj'

# Vertices (Count = 16)
v -768 -160 0
v -800 -160 0
v -800 -128 0
v -768 -128 0
v -896 -160 0
v -928 -160 0
v -928 -128 0
v -896 -128 0
v -544 -704 0
v -576 -704 0
v -576 -672 0
v -544 -672 0
v -672 -704 0
v -704 -704 0
v -704 -672 0
v -672 -672 0

# Texture cooridinates (Count = 4)
vt 0 0
vt 1 0
vt 1 1
vt 0 1

# Normal
vn 0 0 -1

# Mesh description
g Boulanje-Town_mesh_0107

# Faces
f 1/1/1 2/2/1 3/3/1 4/4/1
f 5/1/1 6/2/1 7/3/1 8/4/1
f 9/1/1 10/2/1 11/3/1 12/4/1
f 13/1/1 14/2/1 15/3/1 16/4/1

