# Tiled2Unity generated file. Do not modify by hand.
# Wavefront file for 'Boulanje-Town_mesh_0084.obj'

# Vertices (Count = 12)
v -288 -128 0
v -313 -128 0
v -313 -103 0
v -288 -103 0
v -32 -416 0
v -57 -416 0
v -57 -391 0
v -32 -391 0
v -384 -608 0
v -409 -608 0
v -409 -583 0
v -384 -583 0

# Texture cooridinates (Count = 4)
vt 0 0
vt 1 0
vt 1 1
vt 0 1

# Normal
vn 0 0 -1

# Mesh description
g Boulanje-Town_mesh_0084

# Faces
f 1/1/1 2/2/1 3/3/1 4/4/1
f 5/1/1 6/2/1 7/3/1 8/4/1
f 9/1/1 10/2/1 11/3/1 12/4/1

