# Tiled2Unity generated file. Do not modify by hand.
# Wavefront file for 'Boulanje-Town_mesh_0118.obj'

# Vertices (Count = 24)
v -1024 -128 0
v -1118 -128 0
v -1118 -34 0
v -1024 -34 0
v -288 -256 0
v -382 -256 0
v -382 -162 0
v -288 -162 0
v -768 -448 0
v -862 -448 0
v -862 -354 0
v -768 -354 0
v -96 -768 0
v -190 -768 0
v -190 -674 0
v -96 -674 0
v -640 -928 0
v -734 -928 0
v -734 -834 0
v -640 -834 0
v -1056 -1024 0
v -1150 -1024 0
v -1150 -930 0
v -1056 -930 0

# Texture cooridinates (Count = 4)
vt 0 0
vt 1 0
vt 1 1
vt 0 1

# Normal
vn 0 0 -1

# Mesh description
g Boulanje-Town_mesh_0118

# Faces
f 1/1/1 2/2/1 3/3/1 4/4/1
f 5/1/1 6/2/1 7/3/1 8/4/1
f 9/1/1 10/2/1 11/3/1 12/4/1
f 13/1/1 14/2/1 15/3/1 16/4/1
f 17/1/1 18/2/1 19/3/1 20/4/1
f 21/1/1 22/2/1 23/3/1 24/4/1

