# Tiled2Unity generated file. Do not modify by hand.
# Wavefront file for 'Boulanje-Town_mesh_0024.obj'

# Vertices (Count = 20)
v -160 -64 0
v -192 -64 0
v -192 -32 0
v -160 -32 0
v -576 -64 0
v -608 -64 0
v -608 -32 0
v -576 -32 0
v -896 -128 0
v -928 -128 0
v -928 -96 0
v -896 -96 0
v -128 -480 0
v -160 -480 0
v -160 -448 0
v -128 -448 0
v -672 -672 0
v -704 -672 0
v -704 -640 0
v -672 -640 0

# Texture cooridinates (Count = 4)
vt 0 0
vt 1 0
vt 1 1
vt 0 1

# Normal
vn 0 0 -1

# Mesh description
g Boulanje-Town_mesh_0024

# Faces
f 1/1/1 2/2/1 3/3/1 4/4/1
f 5/1/1 6/2/1 7/3/1 8/4/1
f 9/1/1 10/2/1 11/3/1 12/4/1
f 13/1/1 14/2/1 15/3/1 16/4/1
f 17/1/1 18/2/1 19/3/1 20/4/1

