# Tiled2Unity generated file. Do not modify by hand.
# Wavefront file for 'Boulanje-Town_mesh_0108.obj'

# Vertices (Count = 12)
v -512 -160 0
v -576 -160 0
v -576 -96 0
v -512 -96 0
v -832 -224 0
v -896 -224 0
v -896 -160 0
v -832 -160 0
v -608 -768 0
v -672 -768 0
v -672 -704 0
v -608 -704 0

# Texture cooridinates (Count = 4)
vt 0 0
vt 1 0
vt 1 1
vt 0 1

# Normal
vn 0 0 -1

# Mesh description
g Boulanje-Town_mesh_0108

# Faces
f 1/1/1 2/2/1 3/3/1 4/4/1
f 5/1/1 6/2/1 7/3/1 8/4/1
f 9/1/1 10/2/1 11/3/1 12/4/1

