# Tiled2Unity generated file. Do not modify by hand.
# Wavefront file for 'Boulanje-Town_mesh_0091.obj'

# Vertices (Count = 24)
v -896 -64 0
v -990 -64 0
v -990 30 0
v -896 30 0
v -992 -96 0
v -1086 -96 0
v -1086 -2 0
v -992 -2 0
v -1056 -96 0
v -1150 -96 0
v -1150 -2 0
v -1056 -2 0
v -352 -352 0
v -446 -352 0
v -446 -258 0
v -352 -258 0
v 0 -864 0
v -94 -864 0
v -94 -770 0
v 0 -770 0
v -992 -1056 0
v -1086 -1056 0
v -1086 -962 0
v -992 -962 0

# Texture cooridinates (Count = 4)
vt 0 0
vt 1 0
vt 1 1
vt 0 1

# Normal
vn 0 0 -1

# Mesh description
g Boulanje-Town_mesh_0091

# Faces
f 1/1/1 2/2/1 3/3/1 4/4/1
f 5/1/1 6/2/1 7/3/1 8/4/1
f 9/1/1 10/2/1 11/3/1 12/4/1
f 13/1/1 14/2/1 15/3/1 16/4/1
f 17/1/1 18/2/1 19/3/1 20/4/1
f 21/1/1 22/2/1 23/3/1 24/4/1

