# Tiled2Unity generated file. Do not modify by hand.
# Wavefront file for 'Boulanje-Town_mesh_0036.obj'

# Vertices (Count = 24)
v -96 -352 0
v -128 -352 0
v -128 -320 0
v -96 -320 0
v -256 -448 0
v -288 -448 0
v -288 -416 0
v -256 -416 0
v -512 -576 0
v -544 -576 0
v -544 -544 0
v -512 -544 0
v -64 -704 0
v -96 -704 0
v -96 -672 0
v -64 -672 0
v -832 -704 0
v -864 -704 0
v -864 -672 0
v -832 -672 0
v -384 -896 0
v -416 -896 0
v -416 -864 0
v -384 -864 0

# Texture cooridinates (Count = 4)
vt 0 0
vt 1 0
vt 1 1
vt 0 1

# Normal
vn 0 0 -1

# Mesh description
g Boulanje-Town_mesh_0036

# Faces
f 1/1/1 2/2/1 3/3/1 4/4/1
f 5/1/1 6/2/1 7/3/1 8/4/1
f 9/1/1 10/2/1 11/3/1 12/4/1
f 13/1/1 14/2/1 15/3/1 16/4/1
f 17/1/1 18/2/1 19/3/1 20/4/1
f 21/1/1 22/2/1 23/3/1 24/4/1

