# Tiled2Unity generated file. Do not modify by hand.
# Wavefront file for 'Boulanje-Town_mesh_0035.obj'

# Vertices (Count = 16)
v -800 -320 0
v -832 -320 0
v -832 -288 0
v -800 -288 0
v -448 -448 0
v -480 -448 0
v -480 -416 0
v -448 -416 0
v -288 -672 0
v -320 -672 0
v -320 -640 0
v -288 -640 0
v -576 -864 0
v -608 -864 0
v -608 -832 0
v -576 -832 0

# Texture cooridinates (Count = 4)
vt 0 0
vt 1 0
vt 1 1
vt 0 1

# Normal
vn 0 0 -1

# Mesh description
g Boulanje-Town_mesh_0035

# Faces
f 1/1/1 2/2/1 3/3/1 4/4/1
f 5/1/1 6/2/1 7/3/1 8/4/1
f 9/1/1 10/2/1 11/3/1 12/4/1
f 13/1/1 14/2/1 15/3/1 16/4/1

