# Tiled2Unity generated file. Do not modify by hand.
# Wavefront file for 'Boulanje-Town_mesh_0069.obj'

# Vertices (Count = 40)
v -1024 -64 0
v -1088 -64 0
v -1088 0 0
v -1024 0 0
v -960 -96 0
v -1024 -96 0
v -1024 -32 0
v -960 -32 0
v -320 -256 0
v -384 -256 0
v -384 -192 0
v -320 -192 0
v -800 -448 0
v -864 -448 0
v -864 -384 0
v -800 -384 0
v -128 -768 0
v -192 -768 0
v -192 -704 0
v -128 -704 0
v -672 -928 0
v -736 -928 0
v -736 -864 0
v -672 -864 0
v -992 -992 0
v -1056 -992 0
v -1056 -928 0
v -992 -928 0
v -1088 -1024 0
v -1152 -1024 0
v -1152 -960 0
v -1088 -960 0
v -992 -1088 0
v -1056 -1088 0
v -1056 -1024 0
v -992 -1024 0
v -864 -1120 0
v -928 -1120 0
v -928 -1056 0
v -864 -1056 0

# Texture cooridinates (Count = 4)
vt 0 0
vt 1 0
vt 1 1
vt 0 1

# Normal
vn 0 0 -1

# Mesh description
g Boulanje-Town_mesh_0069

# Faces
f 1/1/1 2/2/1 3/3/1 4/4/1
f 5/1/1 6/2/1 7/3/1 8/4/1
f 9/1/1 10/2/1 11/3/1 12/4/1
f 13/1/1 14/2/1 15/3/1 16/4/1
f 17/1/1 18/2/1 19/3/1 20/4/1
f 21/1/1 22/2/1 23/3/1 24/4/1
f 25/1/1 26/2/1 27/3/1 28/4/1
f 29/1/1 30/2/1 31/3/1 32/4/1
f 33/1/1 34/2/1 35/3/1 36/4/1
f 37/1/1 38/2/1 39/3/1 40/4/1

