# Tiled2Unity generated file. Do not modify by hand.
# Wavefront file for 'Boulanje-Town_mesh_0117.obj'

# Vertices (Count = 52)
v -256 -96 0
v -350 -96 0
v -350 -2 0
v -256 -2 0
v -992 -160 0
v -1086 -160 0
v -1086 -66 0
v -992 -66 0
v -1056 -160 0
v -1150 -160 0
v -1150 -66 0
v -1056 -66 0
v -352 -192 0
v -446 -192 0
v -446 -98 0
v -352 -98 0
v -1056 -224 0
v -1150 -224 0
v -1150 -130 0
v -1056 -130 0
v -352 -576 0
v -446 -576 0
v -446 -482 0
v -352 -482 0
v -288 -768 0
v -382 -768 0
v -382 -674 0
v -288 -674 0
v -224 -896 0
v -318 -896 0
v -318 -802 0
v -224 -802 0
v -1056 -960 0
v -1150 -960 0
v -1150 -866 0
v -1056 -866 0
v -1024 -992 0
v -1118 -992 0
v -1118 -898 0
v -1024 -898 0
v -1056 -1088 0
v -1150 -1088 0
v -1150 -994 0
v -1056 -994 0
v -992 -1120 0
v -1086 -1120 0
v -1086 -1026 0
v -992 -1026 0
v -1056 -1120 0
v -1150 -1120 0
v -1150 -1026 0
v -1056 -1026 0

# Texture cooridinates (Count = 4)
vt 0 0
vt 1 0
vt 1 1
vt 0 1

# Normal
vn 0 0 -1

# Mesh description
g Boulanje-Town_mesh_0117

# Faces
f 1/1/1 2/2/1 3/3/1 4/4/1
f 5/1/1 6/2/1 7/3/1 8/4/1
f 9/1/1 10/2/1 11/3/1 12/4/1
f 13/1/1 14/2/1 15/3/1 16/4/1
f 17/1/1 18/2/1 19/3/1 20/4/1
f 21/1/1 22/2/1 23/3/1 24/4/1
f 25/1/1 26/2/1 27/3/1 28/4/1
f 29/1/1 30/2/1 31/3/1 32/4/1
f 33/1/1 34/2/1 35/3/1 36/4/1
f 37/1/1 38/2/1 39/3/1 40/4/1
f 41/1/1 42/2/1 43/3/1 44/4/1
f 45/1/1 46/2/1 47/3/1 48/4/1
f 49/1/1 50/2/1 51/3/1 52/4/1

